<svg width="139" height="87" viewBox="0 0 139 87" fill="none" xmlns="http://www.w3.org/2000/svg">
<g clip-path="url(#clip0_53_5)">
<path d="M69.8661 21.3548C69.5469 21.1588 69.2403 21.0449 68.9399 20.9817C68.7897 19.8751 68.3203 18.6357 68.1138 17.8452C67.5568 15.6952 66.8684 13.5705 65.9235 11.5596C65.1099 9.83954 63.076 6.70936 60.8606 6.3173C61.7242 5.68494 62.6442 5.13478 63.5704 4.67948C64.9534 5.66597 66.0611 6.38053 66.9686 8.0057C67.8259 9.53601 68.3954 11.2876 68.6019 13.033C68.7146 14.0068 70.2541 14.0131 70.1289 13.033C69.8473 10.8007 69.1214 8.58114 67.8447 6.71568C67.1751 5.7292 66.13 4.54669 64.9284 4.0408C66.7683 3.17447 68.9211 2.04255 69.7284 0.233998C69.8098 0.0442906 69.5782 -0.0885049 69.4593 0.0759086C68.7709 0.980182 66.9999 1.7074 65.986 2.17534C64.797 2.71917 63.5454 3.11123 62.3688 3.68036C60.3287 4.66684 58.2885 6.27935 56.8366 8.03099C54.8402 10.434 53.7951 14.108 54.9466 17.0674C54.6588 16.9093 54.3646 16.7639 54.0642 16.6437C52.5685 16.043 50.5471 15.2905 48.92 15.5814C47.9563 15.7521 46.7735 16.4477 46.7922 17.5859C46.8173 18.9012 48.4945 19.8118 49.4582 20.3367C50.2029 20.7477 51.0353 21.0892 51.8864 21.3611C51.3232 21.5129 50.7537 21.6836 50.1779 21.8733C49.3143 22.1579 47.1865 22.7839 47.4744 24.0992C47.8749 25.9204 52.6874 24.681 53.8264 24.3522C53.8765 24.3395 53.9328 24.3206 53.9829 24.3079C52.2619 25.4968 50.5597 27.2737 48.4006 27.2421C45.3153 27.1978 44.5143 24.8644 44.8898 22.1389C45.0963 20.6402 45.5844 19.0214 45.2778 17.5037C44.9461 15.847 42.6181 12.6915 40.7406 14.4747C39.3701 15.7711 40.484 18.6736 42.4115 17.4784C42.4616 17.4468 42.4992 17.3773 42.4741 17.3203C42.4616 17.2761 42.4428 17.2381 42.4303 17.2002C42.4178 17.1559 42.3615 17.137 42.3302 17.1749C41.0035 16.4034 40.8282 15.7458 41.817 15.2083C42.3615 15.3094 42.8058 15.5687 43.1625 15.9861C43.7258 16.6248 43.9573 17.529 43.9636 18.3637C43.9761 19.8814 43.4441 21.475 43.2376 22.98C43.0499 24.3775 43.3252 25.7371 44.0637 26.8057C43.8634 26.8057 43.6507 26.7804 43.4003 26.7172C41.7106 26.3125 41.4916 25.111 41.3852 23.4922C41.2976 22.1579 40.9221 20.7541 39.5328 20.1976C38.4313 19.7613 37.0608 20.128 36.9607 21.456C36.8981 22.316 37.4676 23.8084 38.4689 23.0558C38.544 22.9989 38.544 22.9104 38.4689 22.8535C37.3049 21.9872 39.0008 20.5644 39.7706 22.2528C40.1085 22.9989 39.877 24.055 39.9959 24.8644C40.1211 25.7118 40.4527 26.5338 40.9972 27.1852C40.4277 27.3306 39.8582 27.4697 39.2199 27.4191C37.9307 27.318 36.6603 26.9765 35.3523 27.1725C34.7328 27.2674 33.8629 27.4824 33.2058 27.8934C33.3435 27.318 33.4749 26.7362 33.575 26.1607C33.938 24.1182 33.9881 21.2283 32.6738 19.502C31.5787 18.0602 29.9891 17.8705 28.8126 19.3882C28.0428 20.381 27.7111 21.8227 27.6798 23.2392C26.8538 22.3413 25.7773 21.6077 24.9763 21.241C23.1427 20.3999 21.5781 20.6023 21.309 22.9167C21.0274 25.3134 23.1176 27.2421 24.776 28.608C25.8775 29.5186 27.0102 30.3786 28.1242 31.2639C28.8877 31.8709 29.5448 32.6867 30.4522 33.0724C32.4986 33.9451 34.9581 33.2621 36.9482 32.5665C39.6392 31.6243 41.6668 29.6703 44.12 28.4183C44.6269 28.4119 45.1088 28.3234 45.478 28.121C45.5657 28.1716 45.6533 28.2285 45.7471 28.2728C47.6997 29.2783 49.6585 28.8609 51.2856 27.5582C51.9302 27.046 52.5873 26.5781 53.1943 26.0659C52.8439 26.7615 52.6874 27.514 53.138 28.0705C53.9829 29.1139 55.5099 28.2349 56.1169 27.4191C56.7177 26.616 57.2371 25.6928 57.7378 24.8201C58.0006 24.3585 58.2197 23.8969 58.4449 23.4163C58.4888 23.3151 58.6014 22.9989 58.714 22.7207C59.5526 23.5428 60.1597 24.504 60.8043 25.4968C61.3049 26.2682 62.1435 26.9006 62.4815 27.7543C62.5878 28.0262 62.9759 28.1274 63.1511 27.906C63.2575 27.8934 63.3576 27.8555 63.464 27.7859C64.4841 27.084 65.1787 25.775 65.9297 24.8075C66.349 24.27 66.7308 23.6819 67.2189 23.2013C67.2815 23.1444 67.488 22.9673 67.7633 22.7586C68.1138 22.4931 68.5644 22.1769 68.9461 21.9872C69.2528 21.8291 69.5094 21.7595 69.622 21.8607C69.6971 21.9303 69.8473 21.9366 69.8974 21.8227C69.9099 21.7911 69.9287 21.7532 69.9412 21.7216C69.9975 21.5888 69.9787 21.4433 69.8473 21.3611L69.8661 21.3548ZM30.7276 31.4789C29.914 30.8402 29.1505 30.132 28.3119 29.5312C26.8663 28.4941 25.3205 27.3053 24.1252 25.9774C23.5432 25.3323 22.9612 24.6494 22.7922 23.7767C22.5919 22.7207 22.9174 22.0441 23.9813 22.297C25.1953 22.5879 26.9852 23.9032 27.8676 25.2375C28.0741 25.5473 28.2305 25.8635 28.3182 26.1607C28.3307 26.1987 28.3432 26.224 28.362 26.2556C28.4058 26.2303 28.4496 26.1924 28.4684 26.1354C28.5935 25.7054 28.6811 25.2754 28.7562 24.8391C28.944 23.7198 29.0316 22.5816 29.3883 21.4813C29.6637 20.6402 30.2519 19.2617 31.3346 20.1154C32.1419 20.7477 32.2045 22.12 32.1857 23.0369C32.1607 24.681 31.998 26.1354 31.635 27.7416C31.3972 28.7724 31.2532 30.4228 30.7401 31.4852L30.7276 31.4789ZM38.4752 30.4355C37.1359 31.1437 35.7529 31.5042 34.2884 31.8204C33.719 31.9468 32.8616 32.1492 32.0918 32.1808C32.3797 31.5484 32.4736 30.739 32.6363 30.1509C32.6676 30.0371 32.6989 29.917 32.7302 29.8031C32.7865 29.7715 32.8303 29.7146 32.8553 29.6324C33.0869 28.804 34.933 28.6206 35.5589 28.5574C36.629 28.4499 37.6303 28.6712 38.6879 28.804C39.4201 28.8988 40.1523 28.9558 40.8345 28.8546C40.0835 29.43 39.32 29.9865 38.4814 30.4292L38.4752 30.4355ZM54.5899 20.5644C53.889 20.4505 53.2006 20.2988 52.5185 20.0901C51.6361 19.8245 48.8324 19.0277 48.8136 17.8262C48.8136 17.2887 49.4144 17.099 49.8462 17.2255C50.8538 17.137 52.4997 17.8199 53.4196 18.1867C54.8215 18.7495 55.8728 19.7802 56.8867 20.8489C56.6614 20.6149 55.1532 20.6529 54.7651 20.5896C54.7088 20.577 54.6462 20.5707 54.5899 20.558V20.5644ZM49.4958 23.8969C48.8449 23.8589 48.3693 23.9475 49.0514 23.3594C49.2705 23.1697 49.6522 23.0685 49.9151 22.9673C50.6535 22.6828 51.4295 22.4678 52.1868 22.2401C52.8063 22.0567 53.4259 21.9429 54.0517 21.8607C54.302 21.8986 54.5524 21.9302 54.7964 21.9492C55.4285 21.9998 56.2734 22.1453 57.0056 22.0378C56.3547 22.4804 55.7352 22.7144 54.9091 22.961C53.1505 23.4795 51.3607 24.0107 49.4958 23.9032V23.8969ZM53.8702 27.2863C53.6825 26.9006 54.2958 26.0153 54.5023 25.7244C55.2783 24.6178 56.3172 23.5744 57.5751 23.0495C57.2058 23.2013 56.6426 24.7632 56.411 25.1363C56.1482 25.56 54.4648 28.5131 53.8765 27.2863H53.8702ZM62.9759 25.9963C62.6442 25.2628 62.1122 24.5609 61.7367 23.9159C61.0296 22.7017 60.0283 21.6394 59.0457 20.6086C61.0609 20.9817 63.1636 20.1913 63.1949 17.6555C63.2074 16.492 62.7506 14.949 61.5427 14.5316C60.3099 14.108 59.0645 15.0691 58.9456 16.3275C58.8955 16.8461 59.6215 16.9599 59.8656 16.5805C60.8293 15.0439 61.8995 16.9346 61.5928 18.0412C61.1297 19.7043 59.0144 19.2111 57.9881 18.4902C55.2721 16.5868 55.7602 12.3943 57.3373 9.94072C57.8755 9.11232 58.4637 8.12584 59.4775 7.86025C60.6666 7.54407 61.8869 8.24599 62.6567 9.11232C63.8583 10.4782 64.5967 12.2678 65.2225 13.9625C65.8546 15.6699 66.3678 17.4215 66.7871 19.1921C66.9248 19.7613 66.9811 20.5896 67.1438 21.3295C65.5167 22.278 64.1837 24.6747 62.9884 25.99L62.9759 25.9963Z" fill="#A67C52"/>
<path d="M35.0958 49.0648C34.9268 47.9265 34.1696 46.8642 33.0994 46.4658C32.4236 46.2128 31.635 46.2761 30.9967 46.5986C30.6275 46.7883 30.3083 47.0602 30.083 47.4206C29.476 48.3945 29.7764 49.8679 30.7777 50.418C31.1844 50.6394 31.7164 50.6963 32.0919 50.418C32.4611 50.1398 32.5237 49.4758 32.1357 49.2292C31.8916 49.0711 31.5474 49.109 31.3409 48.9004C31.053 48.6095 31.2971 48.0657 31.6851 47.9329C32.4736 47.6736 33.3122 48.4008 33.4874 49.1533C33.7065 50.0892 32.968 51.4045 32.1232 51.8788C30.7652 52.6439 28.1117 52.1886 26.6911 51.7966C26.2968 51.6891 25.9151 51.5436 25.5396 51.3855C25.6648 51.0757 25.7398 50.7279 25.9026 50.3485C26.1654 49.7414 26.4658 49.2608 26.7975 48.717C27.4671 47.623 27.9552 46.7251 29.0567 46.0042C29.914 45.4414 30.9216 45.2137 31.7852 44.6762C32.0731 44.4991 32.1294 44.1577 32.0356 43.8794C32.0981 43.8162 32.1545 43.7466 32.2108 43.6708C32.3109 43.5316 32.3234 43.3799 32.2671 43.2534C32.2546 43.1459 32.1983 43.0384 32.0856 42.9562C32.0043 42.8993 31.9292 42.8487 31.8541 42.8107C31.8666 42.5135 31.7039 42.2037 31.3784 42.1215C30.3959 41.8685 29.3696 41.9571 28.3808 41.6788C27.1229 41.3184 26.3907 40.6101 25.4269 39.7691C24.9513 39.3517 24.5195 38.9787 24.094 38.4791C23.8249 38.1629 23.6496 37.8594 23.4431 37.5938C23.756 37.3282 24.0814 37.0752 24.4256 36.8539C25.671 36.0508 28.0679 34.8177 29.5886 35.1402C30.8715 35.4121 32.7928 37.7203 31.0593 38.7953C29.7138 39.63 29.2632 38.106 30.1519 37.7708C30.6713 37.5748 30.7464 36.7907 30.1519 36.62C27.6861 35.937 27.5046 40.3825 30.0642 40.5532C33.2997 40.7682 34.3636 36.6326 32.1294 34.7039C31.2658 33.9577 30.1831 33.553 29.0504 33.5151C27.5797 33.4645 26.1654 33.806 24.676 33.6795C23.5057 33.5783 22.204 33.1293 21.1776 32.5665C20.1701 32.0164 19.0499 31.0678 18.3928 30.1003C18.0486 29.6008 17.6105 28.7977 17.7357 28.1716C17.9735 26.9638 19.0186 26.4769 19.9886 27.3053C20.2702 27.5456 20.6207 27.1852 20.3891 26.9006C19.6694 26.0216 18.2989 25.4778 17.3038 26.2809C16.1148 27.2421 16.3589 29.1834 16.9471 30.3849C17.8483 32.2187 20.0574 33.9704 22.4042 34.7861C21.8723 34.7482 21.3529 34.6533 20.7771 34.5648C19.5505 34.3751 18.0986 34.3751 16.872 34.5964C14.3813 35.0391 13.5114 37.7203 15.3138 39.5098C15.489 39.6869 15.8958 39.5731 15.8582 39.2822C15.6517 37.7013 15.6079 36.2658 17.4853 36.0761C18.5617 35.9686 19.8009 35.9813 20.8522 36.1773C21.3529 36.2722 21.9286 36.348 22.5232 36.367C21.09 37.6886 19.9761 39.3264 18.9247 40.9643C18.0423 42.3428 16.4402 44.0059 16.822 45.7892C16.8282 45.8208 16.8407 45.8524 16.8595 45.8777C17.2162 47.2942 18.931 48.3123 19.9323 49.1913C21.5719 50.633 23.1114 51.942 25.1203 52.8653C27.0103 53.7379 29.2507 54.2248 31.3159 53.7948C33.5563 53.3269 35.4775 51.531 35.1083 49.0458L35.0958 49.0648ZM22.6045 38.3779C22.98 39.5351 24.3067 40.7429 25.0327 41.4196C25.7586 42.0962 26.641 42.6653 27.5985 43.0447C27.3983 43.0447 27.1917 43.0447 26.979 43.0447C25.0953 42.9625 21.9411 42.6463 20.4392 41.135C21.0838 40.1865 21.7909 39.2253 22.6045 38.3779ZM17.5166 45.5805C17.5166 45.5805 17.5166 45.5489 17.5041 45.5362C17.9359 44.2146 19.0186 43.1016 19.8509 41.976C20.5831 43.2471 22.7735 43.8288 23.9938 44.1008C24.4507 44.2019 24.9075 44.2841 25.3706 44.36C24.9576 44.5687 24.5445 44.7837 24.144 45.0177C23.0551 45.6437 21.1401 46.8578 20.8147 48.2933C19.6819 47.4649 18.3177 46.7251 17.5166 45.5868V45.5805ZM24.507 50.8986C23.4807 50.3358 22.5232 49.6339 21.6282 48.9193C22.617 47.0223 25.5333 45.7702 27.3106 45.1315C27.5109 45.0556 27.7112 44.9987 27.9052 44.9418C27.1041 45.5931 26.4282 46.4025 25.9338 47.2626C25.4395 48.1289 24.5258 49.6845 24.5132 50.8986H24.507Z" fill="#A67C52"/>
<path d="M15.4326 33.1104C15.2949 32.7942 14.6065 32.5223 14.3687 32.4527C13.5677 32.1998 12.7103 32.1618 11.8842 32.2693C11.0018 32.3831 9.17446 32.8764 8.88658 33.9071C8.57993 34.9948 10.2258 35.311 10.958 35.3236C11.7153 35.3363 12.4975 35.1276 13.1985 34.8557C13.9119 34.5838 14.6128 33.9324 15.2574 33.5087C15.4576 33.376 15.4952 33.2432 15.4389 33.1167L15.4326 33.1104ZM12.9231 33.8629C12.4412 34.0336 10.3447 34.6723 10.1382 34.1285C10.0005 33.7617 11.6464 33.2748 12.1346 33.1926C12.7103 33.0914 13.455 32.9902 14.1372 33.0471C13.7116 33.357 13.455 33.6795 12.9231 33.8629Z" fill="#A67C52"/>
<path d="M9.47485 28.6206C10.0569 30.0244 12.1846 30.7453 13.4676 31.0805C14.2874 31.2955 15.1698 31.0173 14.6441 30.0497C13.8806 28.6333 12.8918 27.2041 11.4086 26.4959C10.1633 25.9015 9.09936 26.9512 9.36221 28.2475C9.38724 28.374 9.42479 28.5005 9.47485 28.6206ZM12.2848 28.3993C12.6227 28.7408 12.9544 29.2593 13.2172 29.683C13.2485 29.7399 13.2798 29.7905 13.3111 29.8474C12.5351 29.5818 11.8029 29.1961 11.0832 28.7913C10.739 28.5953 10.4011 28.3993 10.2071 28.0388C10.0882 27.8238 9.98802 27.4191 10.0819 27.1156C10.714 26.8816 11.9844 28.0957 12.291 28.3993H12.2848Z" fill="#A67C52"/>
<path d="M51.6611 13.3681C51.8176 12.2931 51.4797 11.2054 50.8977 10.3075C50.422 9.56762 49.3269 8.28393 48.3756 8.20172C46.4669 8.03099 47.0927 11.2876 47.7122 12.1793C48.1816 12.8559 51.2982 15.3537 51.6486 13.444C51.6486 13.4187 51.6549 13.3934 51.6611 13.3681ZM48.4069 11.1801C48.0377 10.5035 48.0126 9.97865 48.0752 9.2135C48.0877 9.0807 48.1003 8.96055 48.1003 8.84041C48.119 8.84041 48.1315 8.83408 48.1503 8.82776C48.1003 8.85305 48.6697 9.31468 48.8074 9.45379C49.1516 9.80159 49.6585 10.2379 49.8776 10.6679C50.2155 11.3445 50.3845 12.1856 50.5409 12.976C49.6711 12.6029 48.8825 12.0591 48.4069 11.1801Z" fill="#A67C52"/>
<path d="M11.2772 45.2643C13.017 43.6455 10.4449 42.1974 8.8678 42.5325C6.64616 43.0005 5.72621 45.6564 7.02165 47.5029C9.79401 51.4425 16.3651 48.4071 15.2699 43.715C14.0871 38.6498 7.52856 38.0617 3.91134 40.6607C-1.14525 44.2968 0.425546 51.4045 5.65737 53.9593C10.7453 56.4444 18.3301 53.9276 21.5906 49.3999C21.9912 48.8435 21.1964 48.0467 20.6457 48.4451C17.3726 50.8038 14.3312 53.2573 10.0694 53.2447C5.30691 53.232 0.187736 48.4071 3.34185 43.5253C5.46337 40.2434 10.9518 39.1873 13.3299 42.8108C14.5252 44.6383 13.9056 47.2562 11.6151 47.7305C10.57 47.9455 9.19323 47.7052 8.4047 46.9401C7.81643 46.3709 7.57237 45.3908 7.9854 44.6383C8.4798 43.7403 11.4399 43.2281 10.739 44.9545C10.6076 45.2706 11.0582 45.4667 11.2709 45.2706L11.2772 45.2643Z" fill="#A67C52"/>
<path d="M27.4107 56.5709C25.9526 55.0722 23.6809 55.2429 22.1476 56.4824C21.6094 56.9187 21.1713 57.4435 20.7833 58.0063C20.4391 57.9874 19.9698 57.8862 19.7633 57.8546C19.1062 57.766 18.5992 57.4182 18.0986 56.9882C16.9408 55.9954 16.3275 55.1101 16.2149 53.5672C16.1898 53.27 15.8519 53.0992 15.6204 53.3206C14.0934 54.7876 15.7956 56.944 16.9533 58.0063C17.5416 58.5502 18.2926 59.1509 19.0811 59.3406C19.3377 59.4039 19.6256 59.4355 19.9135 59.4671C19.7633 59.4544 18.4115 62.1483 18.1674 62.4392C17.2913 63.4762 15.3325 62.8692 14.2811 62.4645C12.823 61.9017 11.3335 60.9342 10.4261 59.6252C9.13065 57.7534 8.93038 55.5907 8.7489 53.4028C8.72386 53.1056 8.38592 53.0233 8.21695 53.2573C6.66493 55.3315 8.09805 59.2331 9.53117 60.9974C10.7828 62.5467 12.9544 63.9189 15.0947 64.3489C13.7116 64.4058 12.4662 64.4374 11.1395 63.7987C9.95672 63.2296 8.78645 62.4771 7.93534 61.4527C5.86389 58.9549 5.45711 55.7741 6.51473 52.7831C6.62112 52.4858 6.2206 52.2961 6.01408 52.4922C5.87014 52.6313 5.73872 52.7767 5.61982 52.9285C2.05267 53.2636 0.0375386 57.3424 -1.04017e-05 60.637C-0.0375594 64.3363 2.4657 67.2578 5.8764 68.3328C9.83782 69.5785 14.1559 68.2189 17.3038 65.6579C19.1312 64.1655 20.314 62.3506 21.4092 60.2828C22.0976 58.9865 22.9987 57.2032 24.6697 57.14C25.5208 57.1084 27.1041 57.8356 26.4908 58.9296C26.109 59.6189 24.8574 59.0813 24.8637 60.0046C24.8824 61.5096 26.4282 61.1618 27.223 60.4789C28.4934 59.3912 28.5935 57.7913 27.4045 56.5709H27.4107ZM1.63337 59.2394C1.63337 59.2394 1.63337 59.2268 1.63337 59.2205C2.14654 59.2331 2.63468 58.9928 3.11655 58.8158C3.67979 58.6071 4.14915 58.2087 4.68109 57.9684C4.76245 58.3731 4.8751 58.7778 5.01278 59.1699C4.90639 59.1699 4.8 59.1952 4.68735 59.2647C3.94263 59.7137 3.2292 60.15 2.52829 60.6812C2.22164 60.9152 1.89621 61.1112 1.56453 61.3009C1.48317 60.6243 1.50195 59.9224 1.62085 59.2394H1.63337ZM2.75984 56.2863C3.21668 55.5148 4.09908 54.4082 5.03781 53.8391C4.58096 54.794 4.44954 55.869 4.54341 56.9693C4.48083 56.9946 4.41825 57.0262 4.35567 57.0515C3.54837 57.4372 2.72229 57.9368 1.8837 58.2466C2.09647 57.5637 2.39687 56.906 2.75984 56.2863ZM1.83363 62.4961C2.12776 62.3886 2.40938 62.2368 2.65971 62.0914C3.58592 61.5602 4.43703 60.9215 5.35698 60.3903C5.40704 60.365 5.44459 60.3334 5.48214 60.2955C5.67614 60.7128 5.89518 61.1112 6.12673 61.4843C5.38827 61.9902 4.75619 62.6162 4.17418 63.2739C3.89257 63.5901 3.35436 64.1149 2.98513 64.6335C2.45945 64.0011 2.0777 63.2739 1.83989 62.4961H1.83363ZM3.56714 65.2469C3.81121 65.0888 4.0365 64.8991 4.21799 64.7536C5.03155 64.096 6.17679 63.4193 6.96532 62.6479C7.21565 62.9387 7.48475 63.217 7.77262 63.4762C6.88397 64.0201 5.92021 65.7401 5.50717 66.5052C4.86258 66.2207 4.24302 65.8349 3.66727 65.3417C3.62972 65.3101 3.59843 65.2785 3.56088 65.2469H3.56714ZM6.60861 66.891C6.87771 66.5179 7.15307 66.1701 7.4472 65.8033C7.79766 65.3607 8.47354 64.8232 8.75516 64.2541C10.2008 65.2721 11.9218 65.9172 13.6553 65.9867C11.4211 67.0617 8.89909 67.5044 6.60861 66.8847V66.891Z" fill="#A67C52"/>
<path d="M69.04 21.7152L69.0838 21.8164C69.1339 21.9239 69.2841 21.9176 69.3592 21.8543C69.4719 21.7532 69.7284 21.8227 70.0351 21.9808C70.4106 22.1705 70.8674 22.4867 71.2179 22.7523C71.4932 22.961 71.6998 23.1317 71.7623 23.1949C72.2505 23.6755 72.6322 24.2636 73.0515 24.8011C73.8025 25.7686 74.4972 27.0776 75.5172 27.7795C75.6174 27.8491 75.7238 27.887 75.8301 27.8997C75.9991 28.121 76.3871 28.0135 76.4998 27.7479C76.8377 26.9006 77.6763 26.2619 78.177 25.4904C78.8215 24.4976 79.4286 23.5427 80.2672 22.7143C80.3798 22.9926 80.4925 23.3088 80.5363 23.4099C80.7616 23.8905 80.9744 24.3585 81.2435 24.8138C81.7441 25.6864 82.2635 26.6097 82.8643 27.4128C83.4714 28.2285 85.0046 29.1075 85.8432 28.0641C86.2938 27.5076 86.1373 26.7551 85.7869 26.0595C86.3939 26.5781 87.0573 27.0397 87.6956 27.5519C89.3227 28.8546 91.2815 29.2719 93.2341 28.2665C93.328 28.2159 93.4156 28.1653 93.5032 28.1147C93.8662 28.3171 94.3543 28.3993 94.8612 28.4119C97.3144 29.6703 99.342 31.6243 102.033 32.5602C104.023 33.2558 106.489 33.9387 108.529 33.0661C109.436 32.6803 110.094 31.8583 110.857 31.2575C111.971 30.3722 113.097 29.5122 114.205 28.6016C115.87 27.2294 117.954 25.307 117.672 22.9104C117.403 20.5959 115.839 20.3936 114.005 21.2346C113.204 21.6014 112.127 22.3349 111.301 23.2329C111.27 21.8101 110.938 20.3683 110.169 19.3818C108.992 17.8642 107.409 18.0539 106.307 19.4956C104.993 21.222 105.037 24.1055 105.406 26.1544C105.506 26.7298 105.638 27.3116 105.775 27.887C105.118 27.476 104.248 27.261 103.629 27.1662C102.321 26.9701 101.057 27.3053 99.7614 27.4128C99.1168 27.4634 98.5473 27.3242 97.984 27.1788C98.5285 26.5275 98.8602 25.7054 98.9853 24.858C99.1042 24.0486 98.8727 22.9926 99.2106 22.2464C99.9804 20.558 101.683 21.9745 100.512 22.8471C100.437 22.9041 100.437 22.9926 100.512 23.0495C101.52 23.8083 102.083 22.3096 102.021 21.4496C101.92 20.1217 100.55 19.7549 99.4484 20.1912C98.0591 20.7477 97.6836 22.1515 97.596 23.4858C97.4896 25.1047 97.2706 26.3062 95.5809 26.7109C95.3368 26.7678 95.1241 26.7931 94.9175 26.7994C95.656 25.7307 95.9376 24.3711 95.7436 22.9736C95.5371 21.4686 95.0051 19.8751 95.0177 18.3574C95.0239 17.5164 95.2555 16.6184 95.8187 15.9797C96.1754 15.5624 96.6197 15.3031 97.1642 15.2019C98.153 15.7394 97.984 16.3971 96.651 17.1686C96.6198 17.1306 96.5634 17.1559 96.5509 17.1939C96.5384 17.2381 96.5196 17.2761 96.5071 17.314C96.4883 17.3709 96.5196 17.4405 96.5697 17.4721C98.5035 18.6672 99.6111 15.7647 98.2406 14.4684C96.3632 12.6915 94.0289 15.8406 93.7034 17.4974C93.4031 19.015 93.8849 20.6276 94.0915 22.1326C94.4732 24.8644 93.6722 27.1978 90.5806 27.2357C88.4216 27.2673 86.7193 25.4904 84.9984 24.3016C85.0484 24.3142 85.1047 24.3269 85.1548 24.3458C86.3 24.6747 91.1063 25.9078 91.5068 24.0929C91.7947 22.7839 89.6732 22.1579 88.8033 21.867C88.2276 21.6773 87.6643 21.5065 87.0948 21.3548C87.9522 21.0892 88.7783 20.7414 89.523 20.3304C90.4868 19.8055 92.1639 18.8949 92.189 17.5796C92.2077 16.4413 91.025 15.7521 90.0612 15.575C88.4341 15.2841 86.4127 16.0366 84.917 16.6374C84.6166 16.7575 84.3225 16.903 84.0346 17.0611C85.1861 14.1016 84.141 10.4276 82.1446 8.02464C80.6927 6.27301 78.6463 4.66049 76.6124 3.67401C75.4359 3.10489 74.1842 2.71282 72.9952 2.16899C71.9814 1.70737 70.2103 0.973835 69.5219 0.0695609C69.3968 -0.0948525 69.1652 0.0379429 69.2528 0.227651C70.0601 2.04252 72.2129 3.16812 74.0528 4.03445C72.8513 4.54034 71.8061 5.72285 71.1365 6.70933C69.8661 8.57479 69.1402 10.7944 68.8523 13.0266C68.7271 14.0068 70.2604 14.0004 70.3793 13.0266C70.5858 11.2813 71.1553 9.52966 72.0127 7.99935C72.9264 6.37418 74.0278 5.65962 75.4108 4.67314C76.3371 5.12844 77.2507 5.67859 78.1206 6.31095C75.9052 6.70301 73.8713 9.83319 73.0578 11.5532C72.1065 13.5641 71.4244 15.6888 70.8674 17.8389C70.6609 18.6356 70.1915 19.8687 70.0413 20.9754C69.741 21.0323 69.4343 21.1524 69.1151 21.3485C68.9837 21.4307 68.9649 21.5761 69.0213 21.7089L69.04 21.7152ZM107.371 27.729C107.002 26.1228 106.846 24.6683 106.821 23.0242C106.808 22.1136 106.864 20.7414 107.672 20.1027C108.754 19.249 109.343 20.6276 109.618 21.4686C109.981 22.5689 110.062 23.7072 110.25 24.8264C110.325 25.2628 110.406 25.6991 110.538 26.1228C110.557 26.186 110.594 26.2239 110.644 26.2429C110.663 26.2176 110.676 26.186 110.688 26.1481C110.776 25.8445 110.932 25.5347 111.139 25.2248C112.021 23.8969 113.811 22.5816 115.025 22.2843C116.089 22.0251 116.408 22.708 116.214 23.7641C116.051 24.6367 115.463 25.3197 114.881 25.9647C113.686 27.2926 112.134 28.4815 110.694 29.5185C109.856 30.1256 109.086 30.8275 108.279 31.4662C107.766 30.3975 107.615 28.7471 107.384 27.7226L107.371 27.729ZM98.1718 28.8546C98.8539 28.9557 99.5861 28.8925 100.318 28.804C101.376 28.6712 102.377 28.4435 103.447 28.5573C104.067 28.6206 105.913 28.804 106.151 29.6324C106.176 29.7146 106.22 29.7715 106.276 29.8031C106.307 29.9169 106.339 30.0371 106.37 30.1509C106.533 30.739 106.627 31.5484 106.914 32.1808C106.145 32.1491 105.287 31.9468 104.718 31.8203C103.253 31.4978 101.87 31.1437 100.531 30.4355C99.6925 29.9928 98.929 29.4363 98.178 28.8609L98.1718 28.8546ZM84.2349 20.5896C83.8406 20.6529 82.3386 20.6086 82.1133 20.8489C83.1334 19.7802 84.1785 18.7495 85.5804 18.1867C86.5003 17.8199 88.1525 17.1369 89.1538 17.2255C89.5793 17.0927 90.1926 17.2824 90.1864 17.8262C90.1738 19.0277 87.3702 19.8245 86.4815 20.0901C85.8057 20.2987 85.111 20.4442 84.4101 20.5643C84.3538 20.577 84.2912 20.5833 84.2349 20.5959V20.5896ZM84.0909 22.9546C83.2586 22.708 82.6453 22.4741 81.9944 22.0314C82.7204 22.1389 83.5715 21.9998 84.2036 21.9429C84.4476 21.9239 84.698 21.8923 84.9483 21.8543C85.5741 21.9365 86.1937 22.0504 86.8132 22.2338C87.5705 22.4614 88.3465 22.6827 89.0849 22.961C89.3478 23.0621 89.7295 23.1633 89.9485 23.353C90.6307 23.9348 90.1551 23.8526 89.5042 23.8905C87.6456 23.998 85.8557 23.4669 84.0909 22.9483V22.9546ZM82.589 25.1426C82.3574 24.7695 81.7879 23.2076 81.4249 23.0558C82.6766 23.5807 83.7217 24.6241 84.4977 25.7307C84.7042 26.0279 85.3175 26.9069 85.1298 27.2926C84.5352 28.5257 82.8581 25.5663 82.5952 25.1426H82.589ZM71.8687 21.3358C72.0314 20.5896 72.0878 19.7676 72.2254 19.1984C72.6447 17.4278 73.1579 15.6762 73.79 13.9688C74.4158 12.2804 75.1543 10.4845 76.3558 9.11862C77.1193 8.24597 78.3459 7.55037 79.535 7.86655C80.5425 8.13214 81.1371 9.1123 81.6753 9.94701C83.2586 12.3942 83.7405 16.5868 81.0244 18.4965C79.9981 19.2174 77.8828 19.7043 77.4197 18.0475C77.1131 16.9472 78.1832 15.0502 79.147 16.5868C79.3848 16.9725 80.117 16.8587 80.0669 16.3338C79.948 15.0818 78.7026 14.1143 77.4698 14.5379C76.262 14.9553 75.8051 16.4983 75.8176 17.6618C75.8489 20.1976 77.9579 20.988 79.9668 20.6149C78.9843 21.6457 77.983 22.708 77.2758 23.9222C76.9003 24.5672 76.3683 25.2628 76.0367 26.0026C74.8414 24.6873 73.5084 22.2907 71.8812 21.3421L71.8687 21.3358Z" fill="#A67C52"/>
<path d="M107.697 53.8138C109.762 54.2438 112.002 53.7569 113.892 52.8842C115.901 51.961 117.441 50.652 119.08 49.2102C120.082 48.3249 121.796 47.3068 122.153 45.8966C122.172 45.8714 122.184 45.8397 122.191 45.8081C122.579 44.0249 120.977 42.3554 120.088 40.9832C119.036 39.3454 117.923 37.7076 116.489 36.386C117.084 36.367 117.66 36.2911 118.16 36.1963C119.212 36.0002 120.451 35.9876 121.527 36.0951C123.405 36.2848 123.361 37.7202 123.154 39.3011C123.117 39.592 123.524 39.7058 123.699 39.5288C125.501 37.7392 124.631 35.058 122.141 34.6154C120.914 34.4004 119.462 34.394 118.235 34.5837C117.66 34.6723 117.14 34.7671 116.608 34.8051C118.955 33.9893 121.171 32.2377 122.065 30.4038C122.654 29.2024 122.892 27.261 121.709 26.2998C120.714 25.4967 119.343 26.0406 118.623 26.9195C118.392 27.2041 118.742 27.5645 119.024 27.3243C120 26.4959 121.039 26.9828 121.277 28.1906C121.402 28.8103 120.958 29.6134 120.62 30.1193C119.963 31.0868 118.842 32.0353 117.835 32.5855C116.809 33.142 115.507 33.5973 114.337 33.6984C112.847 33.8249 111.433 33.4834 109.962 33.534C108.829 33.572 107.747 33.9767 106.883 34.7229C104.649 36.6516 105.713 40.7872 108.948 40.5722C111.508 40.4014 111.333 35.956 108.861 36.6389C108.266 36.8033 108.341 37.5938 108.861 37.7898C109.756 38.1249 109.299 39.6489 107.953 38.8142C106.22 37.7392 108.147 35.4311 109.424 35.1592C110.945 34.8367 113.342 36.0698 114.587 36.8729C114.931 37.0942 115.257 37.3471 115.569 37.6127C115.363 37.872 115.188 38.1819 114.919 38.498C114.493 38.9976 114.061 39.3707 113.586 39.7881C112.622 40.6291 111.89 41.3373 110.632 41.6978C109.649 41.976 108.623 41.8938 107.634 42.1404C107.309 42.2226 107.152 42.5325 107.158 42.8297C107.083 42.874 107.008 42.9182 106.927 42.9751C106.814 43.0574 106.758 43.1649 106.745 43.2724C106.689 43.3988 106.702 43.5443 106.802 43.6897C106.858 43.7719 106.921 43.8352 106.977 43.8984C106.877 44.1766 106.939 44.5244 107.227 44.6952C108.091 45.2327 109.099 45.454 109.956 46.0231C111.051 46.744 111.545 47.642 112.215 48.7359C112.547 49.2798 112.847 49.7604 113.11 50.3674C113.273 50.7468 113.348 51.0946 113.473 51.4045C113.097 51.5626 112.709 51.708 112.321 51.8155C110.901 52.2076 108.241 52.6629 106.889 51.8977C106.045 51.4235 105.306 50.1082 105.525 49.1723C105.7 48.4261 106.539 47.6925 107.327 47.9518C107.715 48.0783 107.96 48.6284 107.672 48.9193C107.465 49.128 107.121 49.0901 106.877 49.2481C106.489 49.4948 106.545 50.1587 106.921 50.437C107.29 50.7152 107.828 50.6583 108.235 50.437C109.236 49.8868 109.537 48.4134 108.93 47.4396C108.704 47.0855 108.385 46.8072 108.016 46.6175C107.378 46.295 106.589 46.2318 105.913 46.4847C104.843 46.8768 104.086 47.9455 103.917 49.0837C103.548 51.5689 105.469 53.3585 107.709 53.8328L107.697 53.8138ZM118.561 41.135C117.059 42.6463 113.905 42.9625 112.021 43.0447C111.808 43.051 111.602 43.051 111.402 43.0447C112.359 42.6653 113.241 42.0962 113.967 41.4195C114.693 40.7429 116.02 39.5351 116.396 38.3779C117.209 39.2253 117.916 40.1864 118.561 41.135ZM118.179 48.2933C117.854 46.8578 115.939 45.6437 114.85 45.0177C114.449 44.79 114.042 44.5687 113.623 44.36C114.086 44.2905 114.543 44.2019 115 44.1007C116.22 43.8352 118.404 43.2471 119.143 41.976C119.975 43.1016 121.058 44.2082 121.49 45.5362C121.49 45.5488 121.483 45.5678 121.477 45.5805C120.676 46.725 119.306 47.4649 118.179 48.287V48.2933ZM113.072 47.2625C112.578 46.3962 111.902 45.5868 111.101 44.9418C111.295 44.9987 111.489 45.0619 111.696 45.1315C113.467 45.7765 116.383 47.0286 117.378 48.9193C116.483 49.6339 115.519 50.3358 114.499 50.8986C114.487 49.6845 113.573 48.1289 113.079 47.2625H113.072Z" fill="#A67C52"/>
<path d="M123.749 33.5024C124.393 33.9261 125.094 34.5774 125.808 34.8493C126.509 35.1212 127.291 35.3299 128.048 35.3173C128.78 35.3046 130.426 34.9884 130.12 33.9008C129.832 32.87 127.998 32.3768 127.122 32.263C126.29 32.1555 125.439 32.1997 124.638 32.4464C124.406 32.5222 123.711 32.7942 123.574 33.104C123.517 33.2305 123.555 33.3696 123.755 33.4961L123.749 33.5024ZM124.863 33.0471C125.545 32.9902 126.29 33.0914 126.865 33.1925C127.354 33.2747 128.999 33.7617 128.862 34.1284C128.655 34.6723 126.559 34.0336 126.077 33.8628C125.545 33.6731 125.288 33.357 124.863 33.0471Z" fill="#A67C52"/>
<path d="M129.644 28.2475C129.901 26.9511 128.843 25.9014 127.598 26.4959C126.108 27.2041 125.126 28.6332 124.362 30.0497C123.843 31.0172 124.725 31.2955 125.539 31.0805C126.822 30.7453 128.949 30.0181 129.531 28.6206C129.582 28.5004 129.619 28.374 129.644 28.2475ZM128.924 27.1092C129.012 27.4064 128.918 27.8112 128.799 28.0325C128.605 28.3929 128.267 28.589 127.923 28.785C127.203 29.1897 126.471 29.5818 125.695 29.841C125.72 29.7841 125.752 29.7335 125.789 29.6766C126.052 29.2593 126.384 28.7407 126.722 28.3929C127.028 28.0831 128.299 26.8753 128.931 27.1092H128.924Z" fill="#A67C52"/>
<path d="M87.3514 13.444C87.7081 15.3537 90.8247 12.8559 91.2878 12.1792C91.9074 11.2813 92.5332 8.03097 90.6244 8.2017C89.6732 8.28391 88.578 9.57392 88.1024 10.3075C87.5204 11.2054 87.1825 12.2931 87.3389 13.3681C87.3389 13.3934 87.3452 13.4187 87.3514 13.444ZM88.4591 12.976C88.6156 12.1919 88.7783 11.3445 89.1225 10.6679C89.3415 10.2316 89.8484 9.80157 90.1926 9.45378C90.3303 9.31466 90.8998 8.84671 90.8497 8.82774C90.8623 8.83406 90.881 8.84039 90.8998 8.84039C90.8998 8.96054 90.9186 9.08068 90.9248 9.21348C90.9874 9.98496 90.9624 10.5098 90.5932 11.1801C90.1175 12.0528 89.3353 12.5966 88.4591 12.976Z" fill="#A67C52"/>
<path d="M127.723 45.2643C125.983 43.6454 128.555 42.1973 130.132 42.5325C132.36 43.0004 133.274 45.6563 131.978 47.5028C129.206 51.4424 122.635 48.4071 123.73 43.715C124.913 38.6498 131.471 38.0617 135.089 40.6607C140.145 44.2968 138.574 51.4045 133.343 53.9592C128.255 56.4444 120.67 53.9276 117.409 49.3999C117.009 48.8434 117.804 48.0467 118.354 48.445C121.627 50.8037 124.669 53.2573 128.931 53.2446C133.693 53.232 138.812 48.4071 135.658 43.5253C133.537 40.2433 128.048 39.1873 125.67 42.8107C124.475 44.6382 125.094 47.2562 127.385 47.7305C128.43 47.9455 129.807 47.7052 130.595 46.94C131.184 46.3709 131.428 45.3907 131.015 44.6382C130.52 43.7403 127.56 43.2281 128.261 44.9544C128.392 45.2706 127.942 45.4666 127.729 45.2706L127.723 45.2643Z" fill="#A67C52"/>
<path d="M111.771 60.4725C112.572 61.1555 114.118 61.5033 114.13 59.9982C114.143 59.075 112.891 59.6125 112.503 58.9232C111.896 57.8293 113.473 57.102 114.324 57.1337C115.995 57.1969 116.902 58.9801 117.585 60.2765C118.68 62.3443 119.863 64.1592 121.69 65.6515C124.832 68.2126 129.156 69.5722 133.117 68.3264C136.528 67.2514 139.031 64.3299 138.994 60.6306C138.962 57.336 136.941 53.2573 133.374 52.9095C133.255 52.7577 133.124 52.6123 132.98 52.4732C132.779 52.2771 132.373 52.4732 132.479 52.7641C133.537 55.7551 133.13 58.9359 131.058 61.4337C130.214 62.4518 129.037 63.2106 127.854 63.7798C126.521 64.4184 125.282 64.3868 123.899 64.3299C126.039 63.8999 128.211 62.5277 129.463 60.9784C130.889 59.2141 132.323 55.3125 130.777 53.2383C130.608 53.0107 130.27 53.0866 130.245 53.3838C130.063 55.5717 129.863 57.7344 128.568 59.6062C127.66 60.9152 126.177 61.889 124.713 62.4455C123.655 62.8502 121.702 63.4573 120.826 62.4202C120.582 62.1356 119.23 59.4354 119.08 59.4481C119.368 59.4228 119.656 59.3849 119.913 59.3216C120.701 59.1319 121.452 58.5312 122.04 57.9873C123.204 56.925 124.9 54.7686 123.373 53.3016C123.148 53.0802 122.804 53.251 122.779 53.5482C122.666 55.0911 122.053 55.9764 120.895 56.9692C120.395 57.3992 119.888 57.7534 119.23 57.8356C119.024 57.8609 118.548 57.962 118.21 57.9873C117.822 57.4245 117.391 56.8997 116.846 56.4634C115.319 55.2303 113.041 55.0532 111.583 56.5519C110.4 57.7723 110.494 59.3722 111.765 60.4599L111.771 60.4725ZM137.423 61.3009C137.098 61.1049 136.766 60.9088 136.459 60.6812C135.758 60.15 135.051 59.7137 134.3 59.2647C134.187 59.1952 134.081 59.1699 133.975 59.1699C134.106 58.7778 134.219 58.3731 134.306 57.9684C134.838 58.2087 135.314 58.6071 135.871 58.8157C136.353 58.9928 136.847 59.2394 137.354 59.2204C137.354 59.2268 137.354 59.2331 137.354 59.2394C137.473 59.9224 137.492 60.6243 137.41 61.3009H137.423ZM137.116 58.2466C136.271 57.9368 135.452 57.4372 134.644 57.0515C134.582 57.0198 134.519 56.9945 134.457 56.9692C134.55 55.8753 134.419 54.7939 133.962 53.8391C134.901 54.4082 135.783 55.5148 136.24 56.2863C136.603 56.8997 136.904 57.5573 137.116 58.2466ZM136.021 64.6334C135.652 64.1212 135.114 63.5964 134.832 63.2739C134.25 62.6162 133.612 61.9902 132.88 61.4843C133.111 61.1112 133.33 60.7128 133.524 60.2955C133.562 60.3271 133.599 60.3587 133.649 60.3903C134.569 60.9215 135.42 61.5602 136.347 62.0914C136.603 62.2368 136.885 62.3886 137.173 62.4961C136.935 63.2739 136.553 64.0011 136.027 64.6334H136.021ZM135.326 65.3417C134.751 65.8349 134.131 66.2207 133.487 66.5052C133.074 65.7401 132.11 64.0201 131.221 63.4762C131.509 63.217 131.778 62.9387 132.028 62.6478C132.817 63.4193 133.968 64.0959 134.776 64.7536C134.957 64.899 135.183 65.0887 135.427 65.2468C135.389 65.2784 135.358 65.3101 135.32 65.3417H135.326ZM125.345 65.993C127.078 65.9235 128.799 65.2785 130.245 64.2604C130.526 64.8295 131.202 65.367 131.553 65.8096C131.847 66.1764 132.122 66.5242 132.391 66.8973C130.101 67.517 127.579 67.068 125.345 65.9993V65.993Z" fill="#A67C52"/>
<path d="M89.3791 78.9564C93.3843 78.5011 97.3395 78.4821 101.22 79.7279C104.474 80.7713 107.252 82.7506 110.238 84.3631C113.511 86.1274 120.319 89.169 122.597 84.597C123.855 82.0676 124.062 74.5741 119.963 74.1947C118.454 74.0556 117.697 75.5037 117.722 76.8633C117.766 79.4433 119.281 82.0613 121.058 83.8129C121.314 84.0659 121.665 84.1987 122.009 84.0342C122.084 83.9963 122.159 83.9647 122.234 83.9267C122.86 83.6295 122.785 82.4913 122.003 82.485C121.465 82.485 120.119 79.0765 120.057 78.3746C119.888 76.5471 120.357 75.6871 121.321 77.6158C121.934 78.8362 122.178 80.2527 122.015 81.6123C121.189 88.5493 112.578 84.0722 109.111 82.055C102.959 78.4758 96.3006 75.9211 89.2539 78.558C89.0224 78.6465 89.1475 78.9943 89.3728 78.969L89.3791 78.9564Z" fill="#A67C52"/>
<path d="M50.5597 78.9564C46.5545 78.5011 42.5993 78.4821 38.7193 79.7279C35.465 80.7713 32.6864 82.7506 29.7013 84.3631C26.4282 86.1274 19.6194 89.169 17.3414 84.597C16.0835 82.0676 15.877 74.5741 19.9761 74.1947C21.4843 74.0556 22.2415 75.5037 22.2165 76.8633C22.1727 79.4433 20.6582 82.0613 18.8809 83.8129C18.6243 84.0659 18.2739 84.1987 17.9297 84.0342C17.8546 83.9963 17.7795 83.9647 17.7044 83.9267C17.0786 83.6295 17.1537 82.4913 17.9359 82.485C18.4741 82.485 19.8196 79.0765 19.8822 78.3746C20.0512 76.5471 19.5818 75.6871 18.6181 77.6158C18.0048 78.8362 17.7607 80.2527 17.9234 81.6123C18.7495 88.5493 27.3607 84.0722 30.8277 82.055C36.9795 78.4758 43.6382 75.9211 50.6849 78.558C50.9164 78.6465 50.7913 78.9943 50.566 78.969L50.5597 78.9564Z" fill="#A67C52"/>
</g>
<defs>
<clipPath id="clip0_53_5">
<rect width="139" height="87" fill="white"/>
</clipPath>
</defs>
</svg>
