<svg width="69" height="62" viewBox="0 0 69 62" fill="none" xmlns="http://www.w3.org/2000/svg">
<path d="M65.3852 27.9049C63.8568 34.2976 59.4948 39.962 52.4211 44.7423C46.6105 48.6691 39.0664 51.9496 29.9987 54.492C29.5663 54.614 29.1158 54.6183 28.6918 54.5169C28.2679 54.4156 27.868 54.208 27.5376 53.9036C20.6004 47.5346 15.3548 41.1963 11.9484 35.0671C7.80193 27.6042 6.47409 20.5781 8.0025 14.1854C8.9906 10.0526 11.4385 6.881 15.0804 5.01357C19.1969 2.90271 24.7745 2.67697 29.2879 4.43604C32.9569 5.86688 36.2317 8.44358 38.8684 11.9528C42.8047 10.0151 46.8921 9.1986 50.8115 9.58207C55.6328 10.0535 60.5047 12.7789 63.2213 16.5235C65.6247 19.8362 66.3733 23.772 65.3852 27.9049Z" fill="#DD5866"/>
</svg>
