<?xml version="1.0" encoding="UTF-8"?>
<svg id="Layer_2" data-name="Layer 2" xmlns="http://www.w3.org/2000/svg" viewBox="0 0 1088.87 257.43">
  <defs>
    <style>
      .cls-1 {
        fill: #669A80;
        stroke-width: 0px;
      }
    </style>
  </defs>
  <g id="Layer_1-2" data-name="Layer 1">
    <path class="cls-1" d="M1087.87,174.41c-110-101.09-289.65-94.27-432.65-79.69-.06-.79-.38-1.55-1.05-2.17C593.51,36.21,513.03,17.02,434.29.1c-3.66-.79-6.37,3.51-3.69,6.33,47.14,49.57,108.16,82.91,175.09,93.74-6.18.72-12.35,1.49-18.53,2.24.7-1.72.2-4.07-1.92-4.37-56.7-7.97-113.66-14.82-170.58-21.15-3.42-2.13-6.79-4.36-10.11-6.73,34.52-2.63,67.58.28,102.25,2.95,3.05.24,3.61-4.54.71-5.28-36.17-9.21-75.84-8.1-112.63-3.92-3.61.41-4.63,4.39-1.78,6.58,2.2,1.69,4.49,3.22,6.75,4.82-1.98.04-2.44,3.46-.33,3.78,2.47.37,4.94.72,7.42,1.09,27.78,18.01,59.09,29.07,92.57,31.17,3.19.2,3.01-4.46,0-4.85-26.72-3.48-51.68-11.17-74.68-23.69,51.12,7.48,102.36,14.53,153.63,20.66-65.09,8.09-130.04,17.47-195.37,23.25-38.62-46.59-92.78-72.75-153.2-75.59-2.92-.13-4.88,3.42-3.36,5.85,22.48,35.84,56.39,62.93,96.52,74.15-73.21,4.85-160.92,8-216.32-42.61.18-.5.17-1.07-.22-1.61-18.43-25.88-2.98-67.33,32.03-63.82,15.29,1.53,30.18,11.84,33.76,27.33,2.43,10.49-.46,23.78-11.19,28.46-9.13,3.98-18.7.13-23.67-8.21-1.8-3.03-6.82-1.06-5.77,2.43,5.47,18.28,30.91,19.16,42.02,5.62,15.03-18.3,4.54-45.46-14.07-56.43-19.09-11.26-45.47-8.72-58.98,9.84-10.85,14.91-11.8,35.03-2.52,50.38-1.42.26-2.67,1.3-3.29,2.63-22.77-8.47-48.8-5.23-69,9.51-21.13,15.42-35.95,46.62-17.46,69.66,16.28,20.3,50.96,23.85,69.43,4.65,15.81-16.44,7.29-47.9-17.95-46.01-5.09.38-5.22,7.94,0,8.01,29.54.43,15.27,34.06-2.14,39.66-7.6,2.45-15.9,2.34-23.51.02-25.74-7.83-30.93-34.31-16.55-55.15,17.72-25.66,52.74-33.08,80.97-22.8,27.41,27.81,63.02,40.18,100.43,45.62-24.48,12.4-48.26,26.22-72.21,39.6-2.83,1.58-1.35,5.55,1.56,5.76,26.79,1.96,53.62,3.9,80.44,5.41-23.43,18.34-44.96,39.82-65.66,61.01-2.35,2.41-.84,7.76,3.02,7.3,82.11-9.72,186.5-27.43,215.16-118.58,62.45-4.57,124.67-12.74,186.76-20.43,3.49-.43,6.98-.85,10.47-1.28-56.4,21.72-101.66,67.08-138.56,115.25-2.14,2.79,1.38,6.49,4.36,5.67,75.74-20.92,155.28-55.61,194.3-128.01,67.51-7.45,135.34-12.64,203.22-9.75,89.02,3.79,191.78,17.96,261.52,78.53,3,2.6,7.37-1.67,4.4-4.4ZM147.48,178.67c45.77-8.55,91.07-18.83,135.97-31.32,3.01-.84,1.73-5.53-1.29-4.68-47.32,13.32-95.01,25.16-143.1,35.36,21.23-12.24,42.58-24.34,63.21-37.55.65-.42.77-1.01.7-1.58,23.06,3.05,46.73,3.59,69.53,3.56,11.9-.02,23.8-.26,35.68-.66-34.41,5.73-64.46,21.37-91.85,41.62-.15-.03-.26-.11-.43-.12-22.78-1.82-45.61-3.25-68.43-4.63ZM347.63,153.93c-1.35,12.56-20.34,29.03-29.53,37.37-14.7,13.34-31.54,23.16-49.65,30.95-29.33,12.62-60.59,18.53-92.06,22.82,28.17-15.93,56.25-32.03,84.35-48.09,16.51-9.43,33.02-18.87,49.54-28.29,7.34-4.19,14.69-8.36,22.03-12.54,7.82-4.45,16.75-15.54,15.32-2.21ZM158.85,247.32c-.4.05-.79.1-1.19.14,46.31-47.63,96.78-93.55,165.12-103.07,1.61-.23,1.9-2.11,1.22-3.33,8.06-.38,16.12-.77,24.18-1.29-62.7,36.55-126.43,71.35-189.33,107.55ZM347.66,129.47c-1.52.1-3.06.2-4.6.31-31.22-7.32-59.85-20.44-83.42-43.09-7.76-7.46-18.87-16.71-20.14-22.04,41.79,24.67,85.16,45.62,130.33,63.11-7.39.6-14.77,1.23-22.17,1.72ZM356.48,116.76c-39.07-15.91-76.58-34.85-112.9-56.26,2.7-.38,6.77-.19,12.71.77,19.33,3.13,38.16,9.2,55.76,17.76,16.3,7.92,31.37,17.93,45.16,29.7,1.91,1.63,17.3,14.87,16.66,15.79.76-1.08-14.33-6.51-17.39-7.76ZM446.11,11.27c-.37-.36-.73-.75-1.11-1.11,67.54,14.71,135.65,32.41,190.19,75.88-63.8-20.65-126.11-45.68-186.52-74.81-.94-.45-1.82-.34-2.56.04ZM472.79,182.96c32.68-32.26,69.98-56.7,113.32-69.18,5.62-.67,11.25-1.31,16.87-1.95-31.76,18.99-63.64,37.81-95.53,56.57-19.38,11.4-38.87,21.82-55.22,36.41,6.62-7.5,13.45-14.82,20.57-21.85ZM602.92,122.52c-7.51,13.07-20.35,25.3-31.57,35.34-18.15,16.23-38.93,29.24-60.65,40.11-20.61,10.32-45.89,23.32-69.19,27.09,35.36-47.69,106.43-69.9,154.92-102.06,15.57-10.32,11.91-9.9,6.49-.47ZM624.3,98.01c-62.81-9.61-119.77-35.02-167.12-76.56,60.48,28.43,122.21,53.16,185.53,74.57-6.21.66-12.37,1.33-18.42,1.99Z"/>
  </g>
</svg>