<?xml version="1.0" encoding="UTF-8"?>
<svg id="Layer_2" data-name="Layer 2" xmlns="http://www.w3.org/2000/svg" viewBox="0 0 73.75 73.75">
  <defs>
    <style>
      .cls-1 {
        fill: #0065a6;
        fill-rule: evenodd;
        stroke-width: 0px;
      }
    </style>
  </defs>
  <g id="Layer_1-2" data-name="Layer 1">
    <path class="cls-1" d="M73.75,16.17v-3.96l-.45.39c-2.22,1.94-4.51,3.8-6.85,5.58l-.38.29-.29-.38c-.55-.73-1.01-1.52-1.35-2.35-.54-1.29-.82-2.69-.82-4.11v-1.5h-1.5c-1.68,0-3.32-.39-4.8-1.14-.58-.29-1.14-.64-1.66-1.04l-.38-.29.29-.38c.58-.76,1.16-1.51,1.75-2.25,1.24-1.56,2.52-3.09,3.83-4.6l.39-.45h-3.96l-.26.31c-1.25,1.49-2.47,3-3.66,4.55l-.43.56-.35-.61c-.86-1.47-1.34-3.12-1.42-4.81h-5.95l-.41.48c-1.36,1.6-2.71,3.22-4.03,4.85-1.29,1.59-2.56,3.2-3.81,4.82l-.38.49-.38-.49c-1.25-1.62-2.52-3.23-3.81-4.82-1.32-1.63-2.67-3.25-4.03-4.85l-.41-.48h-5.95c-.08,1.69-.57,3.34-1.42,4.81l-.35.61-.43-.56c-.72-.94-1.46-1.87-2.21-2.79-.48-.59-.96-1.18-1.45-1.76l-.26-.31h-3.96l.39.45c.41.47.81.94,1.21,1.41.89,1.05,1.76,2.11,2.62,3.19.49.62.98,1.24,1.45,1.86l.3.4.29.38-.38.29c-.07.05-.14.11-.21.16-.46.33-.95.63-1.45.88-.83.42-1.71.72-2.62.91-.71.15-1.44.22-2.17.22h-1.5v1.5c0,1.43-.28,2.83-.82,4.12-.35.83-.8,1.61-1.35,2.33l-.29.38-.38-.29c-2.35-1.78-4.63-3.65-6.85-5.58l-.45-.39v3.96c1.59,1.35,3.21,2.66,4.87,3.93l.56.43-.61.35c-1.47.86-3.12,1.34-4.82,1.43v5.94c1.75,1.5,3.52,2.97,5.31,4.42,1.32,1.07,2.66,2.13,4,3.17l.84.65.49.37-.49.37c-.28.22-.56.43-.84.65-1.35,1.04-2.68,2.1-4,3.18-1.79,1.45-3.56,2.92-5.31,4.42v5.94c1.7.08,3.34.57,4.82,1.43l.61.35-.56.43c-1.65,1.27-3.27,2.58-4.87,3.93v3.96l.45-.39c2.22-1.94,4.51-3.8,6.85-5.59l.38-.29.29.38c.55.72,1,1.51,1.35,2.33.54,1.3.83,2.69.83,4.12v1.5h1.5c.74,0,1.46.08,2.17.22.91.19,1.79.49,2.62.91.5.25.99.55,1.45.88.07.05.14.1.21.16l.38.29-.29.38-.3.4c-.48.62-.96,1.25-1.45,1.86-.86,1.08-1.73,2.14-2.62,3.19-.4.47-.8.94-1.21,1.41l-.39.45h3.96l.26-.31c.49-.58.97-1.17,1.45-1.76.75-.92,1.48-1.85,2.21-2.79l.43-.56.35.61c.85,1.47,1.34,3.12,1.42,4.81h5.95l.41-.48c1.36-1.6,2.71-3.22,4.03-4.85,1.29-1.59,2.56-3.2,3.81-4.82l.38-.49.38.49c1.25,1.62,2.52,3.23,3.81,4.82,1.32,1.63,2.67,3.25,4.03,4.85l.41.48h5.95c.08-1.69.57-3.34,1.42-4.81l.35-.61.43.56c1.19,1.54,2.41,3.06,3.66,4.55l.27.31h3.96l-.39-.45c-1.31-1.5-2.59-3.04-3.83-4.6-.59-.74-1.18-1.5-1.75-2.25l-.29-.38.38-.29c.52-.4,1.08-.75,1.66-1.04,1.48-.75,3.12-1.14,4.8-1.14h1.5v-1.5c0-1.42.28-2.82.82-4.11.35-.83.8-1.62,1.35-2.35l.29-.38.38.29c2.35,1.78,4.63,3.65,6.85,5.59l.45.39v-3.96c-1.59-1.35-3.21-2.66-4.87-3.93l-.56-.43.61-.35c1.47-.86,3.12-1.34,4.82-1.43v-5.94c-1.75-1.5-3.52-2.97-5.31-4.42-1.33-1.07-2.66-2.13-4.01-3.18-.28-.22-.56-.43-.84-.65l-.49-.37.49-.37c.28-.21.56-.43.84-.65,1.35-1.05,2.68-2.1,4.01-3.18,1.79-1.45,3.56-2.92,5.31-4.42v-5.94c-1.7-.08-3.34-.57-4.81-1.43l-.61-.35.56-.43c1.65-1.27,3.27-2.58,4.86-3.93ZM53.22,10.5l.28-.4.39.29c1.05.79,2.21,1.43,3.43,1.88.97.36,1.97.61,3,.75l.36.05.05.36c.31,2.34,1.21,4.55,2.63,6.43l.29.39-.4.28c-1.93,1.37-3.91,2.68-5.94,3.91-.51.31-1.02.61-1.54.91l-.56.32-.14-.63c-.33-1.44-.49-2.91-.49-4.38v-1.5h-1.5c-1.13,0-2.26-.09-3.37-.29-.34-.06-.68-.13-1.02-.2l-.63-.14.32-.56c.43-.74.87-1.48,1.32-2.21,1.11-1.79,2.28-3.55,3.49-5.27ZM52.52,27.14l-.34.18c-.81.41-1.63.81-2.46,1.19-1.52.7-3.06,1.33-4.64,1.87-.55.19-1.1.36-1.65.53l-.83.25.25-.83c.59-2.02,1.37-4.01,2.24-5.95.43-.95.88-1.89,1.35-2.8l.18-.34.37.1c.9.25,1.82.45,2.74.58.5.08,1,.13,1.51.17l.4.03.03.4c.12,1.44.37,2.86.76,4.24l.1.37ZM39.05,12.71c1.41-1.85,2.86-3.68,4.32-5.49.57-.7,1.14-1.39,1.71-2.08.92-1.1,1.84-2.2,2.77-3.29l.64-.74.19.96c.21,1.11.56,2.18,1.04,3.2.39.84.88,1.64,1.44,2.39l.21.28-.2.28c-.49.68-.97,1.37-1.45,2.07-1.41,2.07-2.76,4.2-4.01,6.37l-.5.87-.13-.06-.29-.13c-2.12-.99-4.06-2.34-5.7-4l-.29-.29.25-.33ZM22.59,7.66c.56-.75,1.04-1.55,1.44-2.39.48-1.02.83-2.09,1.04-3.2l.19-.96.64.74c.93,1.09,1.86,2.18,2.77,3.28.57.69,1.15,1.39,1.71,2.09,1.47,1.81,2.91,3.64,4.32,5.49l.25.33-.29.29c-1.65,1.66-3.58,3.02-5.7,4l-.29.13-.13.06-.5-.87c-1.25-2.17-2.6-4.29-4.01-6.37-.47-.7-.96-1.39-1.45-2.07l-.2-.28.21-.28ZM30.9,30.32l.25.83-.83-.24c-.55-.16-1.1-.34-1.65-.53-1.57-.54-3.12-1.18-4.64-1.87-.83-.38-1.65-.78-2.46-1.2l-.34-.18.1-.37c.39-1.39.64-2.81.76-4.24l.03-.4.4-.03c.5-.04,1.01-.1,1.51-.17.92-.14,1.84-.33,2.74-.58l.37-.1.18.34c.47.92.92,1.85,1.35,2.8.87,1.94,1.65,3.93,2.24,5.95ZM10.39,19.86c1.42-1.88,2.32-4.09,2.63-6.43l.05-.36.36-.05c.13-.02.26-.04.38-.06.9-.14,1.77-.38,2.62-.69.5-.19.98-.4,1.45-.64.69-.36,1.35-.77,1.98-1.24l.39-.29.28.4c1.21,1.72,2.39,3.47,3.49,5.26.45.73.89,1.47,1.32,2.21l.32.56-.63.14c-.34.08-.68.15-1.02.2-1.11.19-2.24.29-3.37.29h-1.5v1.5c0,1.47-.16,2.95-.49,4.38l-.14.63-.56-.32-.08-.05c-.49-.28-.97-.57-1.45-.86-.88-.54-1.75-1.09-2.62-1.65-1.12-.73-2.23-1.48-3.32-2.26l-.4-.28.29-.39ZM9.31,32.05c-.71-.56-1.42-1.13-2.12-1.7-1.81-1.46-3.59-2.96-5.35-4.47l-.74-.64.96-.18c2.03-.39,3.94-1.24,5.59-2.47l.28-.21.28.2c.36.26.73.52,1.1.77,1.47,1.03,2.97,2.02,4.5,2.98.86.54,1.74,1.07,2.62,1.58l.23.13.86.49-.19.42c-.27.59-.57,1.16-.9,1.72-.74,1.26-1.62,2.43-2.62,3.49-.16.17-.32.33-.48.49l-.29.29-.33-.25c-1.14-.87-2.27-1.75-3.4-2.64ZM8.22,51.17l-.28.2-.28-.21c-1.65-1.24-3.57-2.09-5.6-2.48l-.96-.18.74-.64c1.76-1.51,3.54-3,5.35-4.47.7-.57,1.41-1.14,2.12-1.7,1.12-.89,2.26-1.77,3.4-2.64l.33-.25.29.29c.16.16.32.33.48.5,1,1.06,1.88,2.24,2.62,3.49.33.56.63,1.13.9,1.71l.19.42-.87.5-.23.13c-.88.51-1.75,1.04-2.62,1.58-1.53.95-3.02,1.95-4.5,2.98-.37.26-.73.51-1.09.77ZM20.53,63.25l-.28.4-.39-.29c-.62-.47-1.29-.88-1.98-1.24-.47-.24-.96-.46-1.45-.64-.84-.32-1.72-.55-2.62-.69-.13-.02-.26-.04-.38-.06l-.36-.05-.05-.36c-.31-2.34-1.21-4.55-2.63-6.43l-.29-.39.4-.28c1.09-.77,2.2-1.52,3.32-2.26.86-.56,1.74-1.11,2.62-1.65.48-.29.97-.58,1.45-.86l.09-.05.56-.32.14.63c.33,1.44.49,2.91.49,4.38v1.5h1.5c1.13,0,2.26.1,3.37.29.34.06.68.13,1.02.2l.63.14-.32.56c-.43.74-.87,1.48-1.32,2.21-1.11,1.79-2.28,3.54-3.49,5.26ZM21.22,46.61l.34-.18c.81-.41,1.63-.81,2.46-1.19,1.51-.7,3.06-1.33,4.64-1.87.55-.19,1.1-.37,1.65-.53l.83-.25-.25.83c-.6,2.02-1.37,4.01-2.24,5.95-.43.95-.88,1.88-1.35,2.8l-.18.34-.37-.1c-.9-.25-1.82-.44-2.74-.58-.5-.07-1-.13-1.51-.17l-.4-.03-.03-.4c-.12-1.44-.37-2.86-.76-4.25l-.1-.37ZM34.7,61.04c-1.41,1.85-2.86,3.68-4.32,5.49-.57.7-1.14,1.39-1.71,2.09-.91,1.1-1.84,2.19-2.77,3.28l-.64.74-.19-.96c-.21-1.11-.56-2.18-1.04-3.2-.4-.84-.88-1.64-1.44-2.39l-.21-.28.2-.28c.49-.68.97-1.37,1.45-2.07,1.41-2.07,2.76-4.2,4.01-6.37l.5-.87.13.06.29.13c2.12.99,4.06,2.35,5.7,4.01l.29.29-.25.33ZM37.21,58.09l-.33.33-.33-.33c-1.8-1.77-3.88-3.23-6.15-4.31l-.44-.21.22-.43c1.91-3.8,3.64-8.04,4.41-12.24l.39-2.13-2.13.39c-1.4.26-2.8.62-4.18,1.06-1.57.5-3.13,1.1-4.64,1.75-1.17.51-2.31,1.05-3.42,1.6l-.43.22-.21-.44c-.59-1.23-1.29-2.41-2.08-3.52-.45-.63-.94-1.23-1.45-1.81-.25-.28-.51-.55-.77-.82l-.33-.33.33-.33c.26-.27.52-.54.77-.82.52-.58,1-1.18,1.45-1.81.8-1.11,1.5-2.28,2.08-3.52l.21-.44.43.22c1.1.56,2.25,1.1,3.42,1.6,1.51.66,3.07,1.25,4.64,1.75,1.39.44,2.79.8,4.18,1.06l2.13.39-.39-2.13c-.77-4.2-2.5-8.44-4.41-12.24l-.22-.43.44-.21c2.28-1.08,4.36-2.55,6.15-4.31l.33-.33.33.33c1.8,1.77,3.88,3.23,6.15,4.31l.44.21-.22.43c-1.91,3.8-3.64,8.04-4.41,12.24l-.39,2.13,2.13-.39c1.4-.26,2.8-.62,4.18-1.06,1.57-.5,3.13-1.1,4.64-1.75,1.17-.51,2.31-1.05,3.41-1.6l.43-.22.21.44c.92,1.93,2.11,3.73,3.54,5.32.25.28.51.56.77.83l.33.33-.33.33c-.26.27-.52.55-.77.83-1.42,1.6-2.62,3.39-3.54,5.32l-.21.44-.43-.22c-1.11-.56-2.25-1.1-3.41-1.6-1.51-.66-3.07-1.25-4.64-1.75-1.39-.44-2.79-.8-4.18-1.06l-2.13-.39.39,2.13c.77,4.2,2.5,8.44,4.41,12.24l.22.43-.44.21c-2.27,1.08-4.36,2.55-6.15,4.31ZM52.52,46.61l-.1.37c-.39,1.39-.64,2.81-.76,4.25l-.03.4-.4.03c-.51.04-1.01.1-1.51.17-.92.14-1.84.33-2.74.58l-.37.1-.18-.35c-.47-.92-.92-1.85-1.35-2.8-.87-1.93-1.65-3.92-2.24-5.95l-.24-.83.83.25c.55.16,1.1.34,1.65.53,1.57.54,3.12,1.17,4.64,1.87.83.38,1.65.78,2.46,1.19l.34.18ZM51.16,66.09c-.56.75-1.04,1.55-1.44,2.4-.48,1.01-.83,2.09-1.04,3.19l-.19.96-.64-.74c-.93-1.09-1.86-2.18-2.77-3.28-.57-.69-1.15-1.39-1.71-2.08-1.47-1.81-2.91-3.64-4.32-5.49l-.25-.33.29-.29c1.65-1.66,3.58-3.02,5.7-4.01l.29-.13.13-.06.5.87c1.25,2.17,2.6,4.3,4.01,6.37.47.7.96,1.38,1.44,2.07l.2.28-.21.28ZM63.36,53.89c-1.42,1.88-2.32,4.09-2.63,6.43l-.05.36-.36.05c-1.03.14-2.04.39-3,.75-1.22.46-2.38,1.09-3.43,1.88l-.39.29-.28-.4c-1.22-1.72-2.39-3.47-3.49-5.26-.45-.73-.9-1.47-1.33-2.21l-.32-.56.63-.14c.34-.08.68-.14,1.02-.2,1.11-.19,2.24-.29,3.37-.29h1.5v-1.5c0-1.47.16-2.95.49-4.38l.14-.63.56.32c.51.3,1.03.6,1.54.91,2.03,1.23,4,2.54,5.94,3.91l.4.28-.29.39ZM64.43,41.69c.71.56,1.42,1.13,2.12,1.7,1.81,1.46,3.59,2.96,5.35,4.47l.74.64-.96.18c-2.03.39-3.94,1.24-5.6,2.48l-.28.21-.28-.2c-.36-.26-.73-.52-1.1-.78-2.31-1.61-4.68-3.14-7.12-4.55l-.22-.13-.87-.5.2-.42c.27-.58.57-1.15.89-1.7.86-1.46,1.9-2.8,3.1-3.99l.29-.29.33.25c1.14.87,2.27,1.75,3.39,2.64ZM71.69,25.06l.96.18-.74.64c-1.76,1.51-3.54,3.01-5.35,4.47-.7.57-1.41,1.14-2.12,1.7-1.12.89-2.25,1.77-3.39,2.64l-.33.25-.29-.29c-1.2-1.19-2.24-2.54-3.1-3.99-.33-.55-.63-1.12-.9-1.7l-.2-.42.87-.5.22-.13c2.44-1.41,4.81-2.94,7.12-4.55.37-.26.73-.52,1.1-.78l.28-.2.28.21c1.65,1.24,3.57,2.08,5.6,2.48Z"/>
  </g>
</svg>